<svg width="36" height="36" viewBox="0 0 36 36" fill="none" xmlns="http://www.w3.org/2000/svg">
<path d="M34.8501 32.7903L26.282 23.8791C28.485 21.2603 29.692 17.9652 29.692 14.535C29.692 6.52052 23.1715 0 15.1571 0C7.14259 0 0.62207 6.52052 0.62207 14.535C0.62207 22.5495 7.14259 29.07 15.1571 29.07C18.1658 29.07 21.033 28.1625 23.4843 26.4398L32.1175 35.4186C32.4783 35.7934 32.9637 36 33.4838 36C33.9761 36 34.4431 35.8123 34.7976 35.4711C35.5509 34.7462 35.5749 33.5442 34.8501 32.7903ZM15.1571 3.79174C21.081 3.79174 25.9003 8.61103 25.9003 14.535C25.9003 20.4589 21.081 25.2782 15.1571 25.2782C9.2331 25.2782 4.41381 20.4589 4.41381 14.535C4.41381 8.61103 9.2331 3.79174 15.1571 3.79174Z" fill="white"/>
</svg>
