<svg width="10" height="12" viewBox="0 0 10 12" fill="none" xmlns="http://www.w3.org/2000/svg">
<path d="M4.57031 0C2.05031 0 0 2.05031 0 4.57031C0 5.56758 0.315 6.51516 0.911719 7.31016L4.28859 11.8582C4.29703 11.8692 4.30992 11.8735 4.3193 11.8833C4.48805 12.064 4.73156 12.0185 4.8518 11.8582C5.82422 10.5607 7.60664 8.1375 8.29195 7.22344C8.29195 7.22344 8.29219 7.22273 8.29242 7.22226L8.29664 7.21664C8.84883 6.44086 9.14062 5.52586 9.14062 4.57031C9.14062 2.05031 7.09031 0 4.57031 0ZM4.57031 7.03594C3.21352 7.03594 2.10469 5.92711 2.10469 4.57031C2.10469 3.21352 3.21352 2.10469 4.57031 2.10469C5.92711 2.10469 7.03594 3.21352 7.03594 4.57031C7.03594 5.92711 5.92711 7.03594 4.57031 7.03594Z" fill="white"/>
</svg>
