<svg width="15" height="15" viewBox="0 0 15 15" fill="none" xmlns="http://www.w3.org/2000/svg">
<path d="M0.43934 0.439554C1.02513 -0.146232 1.97487 -0.146233 2.56066 0.439554L13.8744 11.7533C14.4602 12.339 14.4602 13.2888 13.8744 13.8746C13.2886 14.4604 12.3388 14.4604 11.753 13.8746L0.43934 2.56087C-0.146447 1.97509 -0.146447 1.02534 0.43934 0.439554Z" fill="white"/>
<path d="M0.439567 13.8744C-0.14622 13.2886 -0.14622 12.3388 0.439567 11.753L11.7533 0.43934C12.3391 -0.146447 13.2888 -0.146446 13.8746 0.43934C14.4604 1.02513 14.4604 1.97487 13.8746 2.56066L2.56089 13.8744C1.9751 14.4602 1.02535 14.4602 0.439567 13.8744Z" fill="white"/>
</svg>
