<svg width="24" height="24" viewBox="0 0 24 24" fill="none" xmlns="http://www.w3.org/2000/svg">
<path d="M12 0C6.96 0 2.85938 4.10062 2.85938 9.14062C2.85938 11.1352 3.48938 13.0303 4.68281 14.6203L11.4366 23.7165C11.4534 23.7385 11.4792 23.7469 11.498 23.7666C11.8355 24.128 12.3225 24.0371 12.563 23.7165C14.5078 21.1215 18.0727 16.275 19.4433 14.4469C19.4433 14.4469 19.4437 14.4455 19.4442 14.4445L19.4527 14.4333C20.557 12.8817 21.1406 11.0517 21.1406 9.14062C21.1406 4.10062 17.04 0 12 0ZM12 14.0719C9.28641 14.0719 7.06875 11.8542 7.06875 9.14062C7.06875 6.42703 9.28641 4.20937 12 4.20937C14.7136 4.20937 16.9313 6.42703 16.9313 9.14062C16.9313 11.8542 14.7136 14.0719 12 14.0719Z" fill="url(#paint0_linear)"/>
<defs>
<linearGradient id="paint0_linear" x1="12" y1="0" x2="12" y2="24" gradientUnits="userSpaceOnUse">
<stop stop-color="#FFD791"/>
<stop offset="1" stop-color="#B38D4F"/>
</linearGradient>
</defs>
</svg>
