<svg width="16" height="16" viewBox="0 0 16 16" fill="none" xmlns="http://www.w3.org/2000/svg">
<path d="M1 8.49036V14.4904C1 15.0424 1.449 15.4904 2 15.4904H7V8.49036H1Z" fill="#D6AF6D"/>
<path d="M15 4.49039H11.836C12.063 4.33539 12.258 4.18139 12.394 4.04339C13.201 3.23239 13.201 1.91239 12.394 1.10139C11.61 0.311394 10.244 0.313394 9.461 1.10139C9.027 1.53639 7.877 3.30739 8.036 4.49039H7.964C8.122 3.30739 6.972 1.53639 6.539 1.10139C5.755 0.313394 4.389 0.313394 3.606 1.10139C2.8 1.91239 2.8 3.23239 3.605 4.04339C3.742 4.18139 3.937 4.33539 4.164 4.49039H1C0.449 4.49039 0 4.93939 0 5.49039V6.99039C0 7.26639 0.224 7.49039 0.5 7.49039H7V5.49039H9V7.49039H15.5C15.776 7.49039 16 7.26639 16 6.99039V5.49039C16 4.93939 15.552 4.49039 15 4.49039ZM6.941 4.45739C6.941 4.45739 6.899 4.49039 6.756 4.49039C6.065 4.49039 4.746 3.77239 4.315 3.33839C3.896 2.91639 3.896 2.22839 4.315 1.80639C4.518 1.60239 4.787 1.49039 5.073 1.49039C5.358 1.49039 5.627 1.60239 5.83 1.80639C6.504 2.48439 7.174 4.21639 6.941 4.45739ZM9.243 4.49039C9.101 4.49039 9.059 4.45839 9.059 4.45739C8.826 4.21639 9.496 2.48439 10.17 1.80639C10.573 1.39939 11.278 1.39739 11.685 1.80639C12.105 2.22839 12.105 2.91639 11.685 3.33839C11.254 3.77239 9.935 4.49039 9.243 4.49039Z" fill="#D6AF6D"/>
<path d="M9 8.49036V15.4904H14C14.552 15.4904 15 15.0424 15 14.4904V8.49036H9Z" fill="#D6AF6D"/>
</svg>
