<svg width="28" height="29" viewBox="0 0 28 29" fill="none" xmlns="http://www.w3.org/2000/svg">
<path d="M14 0C6.26828 0 0 6.49185 0 14.5C0 22.5082 6.26828 29 14 29C21.7317 29 28 22.5082 28 14.5C28 6.49185 21.7317 0 14 0ZM21.1015 16.0682C21.7541 16.7283 22.4444 17.3496 23.0302 18.0779C23.2897 18.4001 23.5343 18.7333 23.7205 19.108C23.9863 19.6423 23.7463 20.2282 23.2845 20.26L20.4164 20.2594C19.6756 20.3228 19.0861 20.0134 18.5891 19.4889C18.1924 19.0709 17.8243 18.6244 17.4422 18.1921C17.2861 18.0147 17.1217 17.8477 16.9258 17.7163C16.5348 17.4528 16.195 17.5335 15.971 17.9566C15.7427 18.387 15.6906 18.8641 15.6688 19.3432C15.6376 20.0437 15.4337 20.2267 14.7551 20.2597C13.3051 20.33 11.9293 20.1021 10.6506 19.345C9.52258 18.6772 8.64949 17.7346 7.8887 16.6675C6.4072 14.5872 5.27259 12.304 4.25314 9.95523C4.02369 9.42626 4.19155 9.14323 4.75499 9.13226C5.69109 9.11357 6.62719 9.11594 7.56329 9.13137C7.94427 9.1376 8.19634 9.36337 8.34271 9.73569C8.84857 11.0247 9.46873 12.2512 10.2459 13.3887C10.453 13.6916 10.6643 13.9936 10.9654 14.2075C11.2977 14.4436 11.5509 14.3656 11.7076 13.9814C11.8078 13.7372 11.8511 13.4762 11.8729 13.2145C11.9473 12.3183 11.9562 11.4223 11.8273 10.5296C11.7471 9.97096 11.4438 9.6102 10.9061 9.50458C10.6323 9.45088 10.6724 9.34586 10.8056 9.18388C11.0367 8.90382 11.2533 8.73056 11.6861 8.73056L14.9267 8.72997C15.4374 8.8338 15.552 9.07114 15.6213 9.60397L15.6241 13.3338C15.6181 13.54 15.7241 14.1511 16.0816 14.2861C16.368 14.384 16.5571 14.1461 16.7284 13.9583C17.5055 13.1041 18.0592 12.096 18.555 11.0526C18.7739 10.5925 18.9627 10.1163 19.146 9.63927C19.2823 9.28653 19.4943 9.11297 19.8787 9.11891L22.9992 9.12276C23.0912 9.12276 23.1846 9.12365 23.2757 9.13997C23.8016 9.23313 23.9457 9.4675 23.783 9.99884C23.5269 10.8337 23.0293 11.5291 22.5429 12.2263C22.0216 12.9727 21.4656 13.693 20.9494 14.4427C20.4751 15.1281 20.5126 15.4731 21.1015 16.0682Z" fill="url(#paint0_linear)"/>
<defs>
<linearGradient id="paint0_linear" x1="14" y1="0" x2="14" y2="29" gradientUnits="userSpaceOnUse">
<stop stop-color="#FFD791"/>
<stop offset="1" stop-color="#B38D4F"/>
</linearGradient>
</defs>
</svg>
