<svg width="16" height="16" viewBox="0 0 16 16" fill="none" xmlns="http://www.w3.org/2000/svg">
<g clip-path="url(#clip0)">
<path d="M15.7067 1.59906C15.5222 1.46175 15.2838 1.41981 15.0636 1.48589L11.1514 2.65961V15.8138L15.4815 14.5147C15.7892 14.4224 15.9999 14.1393 15.9999 13.8182V2.18252C15.9999 1.95266 15.8911 1.73632 15.7067 1.59906Z" fill="#D6AF6D"/>
<path d="M8.37396 1.55853L6.30273 0.31543V13.648L9.69667 15.6844V2.35247L8.37546 1.55955C8.37493 1.55926 8.37449 1.55887 8.37396 1.55853Z" fill="#D6AF6D"/>
<path d="M0 2.18172V13.8181C0 14.0479 0.108703 14.2643 0.293139 14.4015C0.420121 14.496 0.572752 14.5454 0.727321 14.5454C0.797236 14.5454 0.867636 14.5352 0.936242 14.5147L4.84848 13.341V0.186279L0.518303 1.48514C0.210715 1.57736 0 1.86051 0 2.18172Z" fill="#D6AF6D"/>
</g>
<defs>
<clipPath id="clip0">
<rect width="16" height="16" fill="white"/>
</clipPath>
</defs>
</svg>
