<svg width="33" height="31" viewBox="0 0 33 31" fill="none" xmlns="http://www.w3.org/2000/svg">
<path d="M14.4443 18.4037L19.8116 15.4998L14.4443 12.5959V18.4037Z" fill="#6E896E"/>
<path d="M14.4443 18.4037L19.8116 15.4998L14.4443 12.5959V18.4037Z" fill="url(#paint0_linear)"/>
<path d="M16.5 0C7.38869 0 0 6.9409 0 15.5C0 24.0591 7.38869 31 16.5 31C25.6113 31 33 24.0591 33 15.5C33 6.9409 25.6113 0 16.5 0ZM26.81 15.5158C26.81 15.5158 26.81 18.6593 26.3855 20.1751C26.1476 21.0048 25.4512 21.659 24.568 21.8823C22.9544 22.2812 16.5 22.2812 16.5 22.2812C16.5 22.2812 10.0625 22.2812 8.43203 21.8664C7.54882 21.6431 6.85242 20.9887 6.6145 20.159C6.18977 18.6593 6.18977 15.5 6.18977 15.5C6.18977 15.5 6.18977 12.3568 6.6145 10.841C6.85217 10.0113 7.56569 9.34101 8.43203 9.11774C10.0456 8.71875 16.5 8.71875 16.5 8.71875C16.5 8.71875 22.9544 8.71875 24.568 9.13359C25.4512 9.35686 26.1476 10.0113 26.3855 10.841C26.8271 12.3568 26.81 15.5158 26.81 15.5158Z" fill="#6E896E"/>
<path d="M16.5 0C7.38869 0 0 6.9409 0 15.5C0 24.0591 7.38869 31 16.5 31C25.6113 31 33 24.0591 33 15.5C33 6.9409 25.6113 0 16.5 0ZM26.81 15.5158C26.81 15.5158 26.81 18.6593 26.3855 20.1751C26.1476 21.0048 25.4512 21.659 24.568 21.8823C22.9544 22.2812 16.5 22.2812 16.5 22.2812C16.5 22.2812 10.0625 22.2812 8.43203 21.8664C7.54882 21.6431 6.85242 20.9887 6.6145 20.159C6.18977 18.6593 6.18977 15.5 6.18977 15.5C6.18977 15.5 6.18977 12.3568 6.6145 10.841C6.85217 10.0113 7.56569 9.34101 8.43203 9.11774C10.0456 8.71875 16.5 8.71875 16.5 8.71875C16.5 8.71875 22.9544 8.71875 24.568 9.13359C25.4512 9.35686 26.1476 10.0113 26.3855 10.841C26.8271 12.3568 26.81 15.5158 26.81 15.5158Z" fill="url(#paint1_linear)"/>
<defs>
<linearGradient id="paint0_linear" x1="17.128" y1="12.5959" x2="17.128" y2="18.4037" gradientUnits="userSpaceOnUse">
<stop stop-color="#FFD791"/>
<stop offset="1" stop-color="#B38D4F"/>
</linearGradient>
<linearGradient id="paint1_linear" x1="16.5" y1="0" x2="16.5" y2="31" gradientUnits="userSpaceOnUse">
<stop stop-color="#FFD791"/>
<stop offset="1" stop-color="#B38D4F"/>
</linearGradient>
</defs>
</svg>
